<?xml version="1.0" encoding="utf-8"?><svg viewBox="0 0 502.66 502.66" xmlns="http://www.w3.org/2000/svg" xmlns:xlink="http://www.w3.org/1999/xlink"><style>:root>svg{display:none}:root>svg:target{display:block}</style><svg viewBox="0 0 224 23" id="ROBO.SCHOOL" xmlns="http://www.w3.org/2000/svg"><path d="M5.47 12.49L11.35 22h5.94l-6.57-9.51H5.47zM.22 1v21h5.07V1H.22zM3.4 5.29h4.11c.68 0 1.26.11 1.74.33.5.22.88.54 1.14.96.26.4.39.89.39 1.47s-.13 1.08-.39 1.5c-.26.4-.64.71-1.14.93-.48.2-1.06.3-1.74.3H3.4v3.93h4.47c1.8 0 3.3-.29 4.5-.87 1.2-.58 2.11-1.38 2.73-2.4.62-1.04.93-2.23.93-3.57 0-1.36-.31-2.55-.93-3.57-.62-1.04-1.53-1.85-2.73-2.43-1.2-.58-2.7-.87-4.5-.87H3.4v4.29zm20.414 6.21c0-1.24.24-2.33.72-3.27.5-.96 1.19-1.71 2.07-2.25.9-.54 1.95-.81 3.15-.81 1.22 0 2.27.27 3.15.81.88.54 1.56 1.29 2.04 2.25.48.94.72 2.03.72 3.27 0 1.24-.25 2.34-.75 3.3-.48.94-1.17 1.68-2.07 2.22-.88.54-1.91.81-3.09.81-1.2 0-2.25-.27-3.15-.81a5.68 5.68 0 01-2.07-2.22c-.48-.96-.72-2.06-.72-3.3zm-5.37 0c0 1.62.27 3.11.81 4.47.56 1.36 1.34 2.54 2.34 3.54 1.02 1 2.22 1.78 3.6 2.34 1.38.54 2.9.81 4.56.81 1.64 0 3.15-.27 4.53-.81 1.38-.56 2.57-1.34 3.57-2.34 1.02-1 1.8-2.18 2.34-3.54.56-1.36.84-2.85.84-4.47 0-1.62-.28-3.1-.84-4.44-.56-1.34-1.35-2.5-2.37-3.48a10.45 10.45 0 00-3.6-2.25c-1.36-.54-2.85-.81-4.47-.81-1.6 0-3.09.27-4.47.81a10.45 10.45 0 00-3.6 2.25c-1.02.98-1.82 2.14-2.4 3.48-.56 1.34-.84 2.82-.84 4.44zm29.619.06h3.93c1.46 0 2.74-.2 3.84-.6 1.12-.42 2-1.02 2.64-1.8.66-.78.99-1.72.99-2.82 0-1.2-.33-2.19-.99-2.97-.64-.8-1.52-1.39-2.64-1.77-1.1-.4-2.38-.6-3.84-.6h-7.71v21h8.22c1.66 0 3.1-.2 4.32-.6 1.22-.42 2.16-1.06 2.82-1.92.68-.86 1.02-1.99 1.02-3.39 0-1.06-.24-1.96-.72-2.7a5.515 5.515 0 00-1.86-1.86c-.78-.5-1.65-.86-2.61-1.08-.96-.22-1.95-.33-2.97-.33h-4.44v2.76h3.87c.5 0 .95.05 1.35.15.42.08.79.22 1.11.42.32.2.57.46.75.78.18.32.27.7.27 1.14 0 .68-.16 1.22-.48 1.62-.3.38-.71.66-1.23.84-.52.16-1.11.24-1.77.24h-2.58V4.93h2.1c.88 0 1.56.18 2.04.54.48.36.72.9.72 1.62 0 .48-.11.89-.33 1.23-.22.32-.54.57-.96.75-.4.18-.89.27-1.47.27h-3.39v2.22zm20.311-.06c0-1.24.24-2.33.72-3.27.5-.96 1.19-1.71 2.07-2.25.9-.54 1.95-.81 3.15-.81 1.22 0 2.27.27 3.15.81.88.54 1.56 1.29 2.04 2.25.48.94.72 2.03.72 3.27 0 1.24-.25 2.34-.75 3.3-.48.94-1.17 1.68-2.07 2.22-.88.54-1.91.81-3.09.81-1.2 0-2.25-.27-3.15-.81a5.68 5.68 0 01-2.07-2.22c-.48-.96-.72-2.06-.72-3.3zm-5.37 0c0 1.62.27 3.11.81 4.47.56 1.36 1.34 2.54 2.34 3.54 1.02 1 2.22 1.78 3.6 2.34 1.38.54 2.9.81 4.56.81 1.64 0 3.15-.27 4.53-.81 1.38-.56 2.57-1.34 3.57-2.34 1.02-1 1.8-2.18 2.34-3.54.56-1.36.84-2.85.84-4.47 0-1.62-.28-3.1-.84-4.44-.56-1.34-1.35-2.5-2.37-3.48a10.45 10.45 0 00-3.6-2.25c-1.36-.54-2.85-.81-4.47-.81-1.6 0-3.09.27-4.47.81a10.45 10.45 0 00-3.6 2.25c-1.02.98-1.82 2.14-2.4 3.48-.56 1.34-.84 2.82-.84 4.44zm24.72 8.46c0 .76.27 1.41.81 1.95s1.21.81 2.01.81c.84 0 1.52-.27 2.04-.81s.78-1.19.78-1.95-.26-1.41-.78-1.95-1.2-.81-2.04-.81c-.8 0-1.47.27-2.01.81-.54.54-.81 1.19-.81 1.95zm12.189-5.34l-3.54 2.55c.48 1 1.15 1.92 2.01 2.76.86.84 1.87 1.51 3.03 2.01 1.18.48 2.45.72 3.81.72.98 0 1.93-.15 2.85-.45.94-.28 1.77-.7 2.49-1.26a5.99 5.99 0 001.74-2.07c.44-.84.66-1.79.66-2.85 0-.88-.14-1.66-.42-2.34-.28-.68-.67-1.28-1.17-1.8-.48-.52-1.04-.96-1.68-1.32-.64-.38-1.33-.71-2.07-.99-.98-.34-1.82-.66-2.52-.96-.68-.3-1.21-.63-1.59-.99-.36-.36-.54-.78-.54-1.26 0-.46.19-.84.57-1.14.38-.32.93-.48 1.65-.48.54 0 1.04.11 1.5.33.48.2.91.49 1.29.87.4.36.75.79 1.05 1.29l3.87-2.16c-.36-.72-.88-1.43-1.56-2.13s-1.54-1.28-2.58-1.74c-1.02-.46-2.23-.69-3.63-.69-1.36 0-2.6.24-3.72.72-1.1.46-1.98 1.14-2.64 2.04-.64.9-.96 1.97-.96 3.21 0 1.04.19 1.93.57 2.67.38.72.86 1.34 1.44 1.86.58.5 1.19.91 1.83 1.23.66.32 1.24.57 1.74.75 1.02.38 1.84.72 2.46 1.02.62.3 1.07.62 1.35.96.28.32.42.75.42 1.29 0 .64-.24 1.15-.72 1.53-.48.36-1.09.54-1.83.54-.7 0-1.37-.15-2.01-.45-.62-.3-1.2-.73-1.74-1.29a10 10 0 01-1.41-1.98zm20.76-3.12c0-1.3.29-2.41.87-3.33a5.75 5.75 0 012.28-2.1c.96-.48 2.01-.72 3.15-.72 1 0 1.88.13 2.64.39.76.24 1.44.58 2.04 1.02.6.42 1.13.87 1.59 1.35V2.65a10.45 10.45 0 00-2.76-1.56c-1-.38-2.27-.57-3.81-.57-1.68 0-3.23.26-4.65.78-1.42.52-2.64 1.27-3.66 2.25s-1.81 2.14-2.37 3.48c-.56 1.34-.84 2.83-.84 4.47 0 1.64.28 3.13.84 4.47.56 1.34 1.35 2.5 2.37 3.48s2.24 1.73 3.66 2.25 2.97.78 4.65.78c1.54 0 2.81-.19 3.81-.57 1-.38 1.92-.9 2.76-1.56v-5.46c-.46.48-.99.93-1.59 1.35-.6.42-1.28.76-2.04 1.02s-1.64.39-2.64.39c-1.14 0-2.19-.24-3.15-.72a5.75 5.75 0 01-2.28-2.1c-.58-.94-.87-2.05-.87-3.33zm18.125 1.71h15.9V8.65h-15.9v4.56zM151.488 1v21h5.07V1h-5.07zm-14.1 0v21h5.07V1h-5.07zm27.754 10.5c0-1.24.24-2.33.72-3.27.5-.96 1.19-1.71 2.07-2.25.9-.54 1.95-.81 3.15-.81 1.22 0 2.27.27 3.15.81.88.54 1.56 1.29 2.04 2.25.48.94.72 2.03.72 3.27 0 1.24-.25 2.34-.75 3.3-.48.94-1.17 1.68-2.07 2.22-.88.54-1.91.81-3.09.81-1.2 0-2.25-.27-3.15-.81a5.68 5.68 0 01-2.07-2.22c-.48-.96-.72-2.06-.72-3.3zm-5.37 0c0 1.62.27 3.11.81 4.47.56 1.36 1.34 2.54 2.34 3.54 1.02 1 2.22 1.78 3.6 2.34 1.38.54 2.9.81 4.56.81 1.64 0 3.15-.27 4.53-.81 1.38-.56 2.57-1.34 3.57-2.34 1.02-1 1.8-2.18 2.34-3.54.56-1.36.84-2.85.84-4.47 0-1.62-.28-3.1-.84-4.44-.56-1.34-1.35-2.5-2.37-3.48a10.45 10.45 0 00-3.6-2.25c-1.36-.54-2.85-.81-4.47-.81-1.6 0-3.09.27-4.47.81a10.45 10.45 0 00-3.6 2.25c-1.02.98-1.82 2.14-2.4 3.48-.56 1.34-.84 2.82-.84 4.44zm30.009 0c0-1.24.24-2.33.72-3.27.5-.96 1.19-1.71 2.07-2.25.9-.54 1.95-.81 3.15-.81 1.22 0 2.27.27 3.15.81.88.54 1.56 1.29 2.04 2.25.48.94.72 2.03.72 3.27 0 1.24-.25 2.34-.75 3.3-.48.94-1.17 1.68-2.07 2.22-.88.54-1.91.81-3.09.81-1.2 0-2.25-.27-3.15-.81a5.68 5.68 0 01-2.07-2.22c-.48-.96-.72-2.06-.72-3.3zm-5.37 0c0 1.62.27 3.11.81 4.47.56 1.36 1.34 2.54 2.34 3.54 1.02 1 2.22 1.78 3.6 2.34 1.38.54 2.9.81 4.56.81 1.64 0 3.15-.27 4.53-.81 1.38-.56 2.57-1.34 3.57-2.34 1.02-1 1.8-2.18 2.34-3.54.56-1.36.84-2.85.84-4.47 0-1.62-.28-3.1-.84-4.44-.56-1.34-1.35-2.5-2.37-3.48a10.45 10.45 0 00-3.6-2.25c-1.36-.54-2.85-.81-4.47-.81-1.6 0-3.09.27-4.47.81a10.45 10.45 0 00-3.6 2.25c-1.02.98-1.82 2.14-2.4 3.48-.56 1.34-.84 2.82-.84 4.44zM210.249 1v21h13.5v-4.35h-8.43V1h-5.07z"/></svg><svg class="bbi bbi-facebook" viewBox="0 0 16 16" id="facebook" xmlns="http://www.w3.org/2000/svg"><path d="M16 8.049c0-4.446-3.582-8.05-8-8.05C3.58 0-.002 3.603-.002 8.05c0 4.017 2.926 7.347 6.75 7.951v-5.625h-2.03V8.05H6.75V6.275c0-2.017 1.195-3.131 3.022-3.131.876 0 1.791.157 1.791.157v1.98h-1.009c-.993 0-1.303.621-1.303 1.258v1.51h2.218l-.354 2.326H9.25V16c3.824-.604 6.75-3.934 6.75-7.951z"/></svg><svg viewBox="0 0 3 13" id="i" xmlns="http://www.w3.org/2000/svg"><path d="M1.549 1.87c-.594 0-.89-.28-.89-.84 0-.55.296-.824.89-.824.593 0 .89.275.89.824 0 .56-.297.84-.89.84zm0 10.214c-.448 0-.672-.246-.672-.74v-6.87c0-.482.224-.723.672-.723.459 0 .689.24.689.722v6.872c0 .492-.23.739-.69.739z"/></svg><svg viewBox="0 0 502.664 502.664" id="icon" xmlns="http://www.w3.org/2000/svg"><path d="M153.821 358.226L0 274.337v-46.463l153.821-83.414v54.574L46.636 250.523l107.185 53.431v54.272zm26.273 29.358L282.103 115.08h32.227L212.084 387.584h-31.99zm168.749-29.358v-54.272l107.164-52.999-107.164-52.59v-53.927l153.821 83.522v46.183l-153.821 84.083z"/></svg><svg class="ebi ebi-instagram" viewBox="0 0 16 16" id="instagram" xmlns="http://www.w3.org/2000/svg"><path d="M8 0C5.829 0 5.556.01 4.703.048 3.85.088 3.269.222 2.76.42a3.917 3.917 0 00-1.417.923A3.927 3.927 0 00.42 2.76C.222 3.268.087 3.85.048 4.7.01 5.555 0 5.827 0 8.001c0 2.172.01 2.444.048 3.297.04.852.174 1.433.372 1.942.205.526.478.972.923 1.417.444.445.89.719 1.416.923.51.198 1.09.333 1.942.372C5.555 15.99 5.827 16 8 16s2.444-.01 3.298-.048c.851-.04 1.434-.174 1.943-.372a3.916 3.916 0 001.416-.923c.445-.445.718-.891.923-1.417.197-.509.332-1.09.372-1.942C15.99 10.445 16 10.173 16 8s-.01-2.445-.048-3.299c-.04-.851-.175-1.433-.372-1.941a3.926 3.926 0 00-.923-1.417A3.911 3.911 0 0013.24.42c-.51-.198-1.092-.333-1.943-.372C10.443.01 10.172 0 7.998 0h.003zm-.717 1.442h.718c2.136 0 2.389.007 3.232.046.78.035 1.204.166 1.486.275.373.145.64.319.92.599.28.28.453.546.598.92.11.281.24.705.275 1.485.039.843.047 1.096.047 3.231s-.008 2.389-.047 3.232c-.035.78-.166 1.203-.275 1.485a2.47 2.47 0 01-.599.919c-.28.28-.546.453-.92.598-.28.11-.704.24-1.485.276-.843.038-1.096.047-3.232.047s-2.39-.009-3.233-.047c-.78-.036-1.203-.166-1.485-.276a2.478 2.478 0 01-.92-.598 2.48 2.48 0 01-.6-.92c-.109-.281-.24-.705-.275-1.485-.038-.843-.046-1.096-.046-3.233 0-2.136.008-2.388.046-3.231.036-.78.166-1.204.276-1.486.145-.373.319-.64.599-.92.28-.28.546-.453.92-.598.282-.11.705-.24 1.485-.276.738-.034 1.024-.044 2.515-.045v.002zm4.988 1.328a.96.96 0 100 1.92.96.96 0 000-1.92zm-4.27 1.122a4.109 4.109 0 100 8.217 4.109 4.109 0 000-8.217zm0 1.441a2.667 2.667 0 110 5.334 2.667 2.667 0 010-5.334z"/></svg><svg class="fbi fbi-arrow-right-circle-fill" viewBox="0 0 16 16" id="next" xmlns="http://www.w3.org/2000/svg"><path d="M8 0a8 8 0 110 16A8 8 0 018 0zM4.5 7.5a.5.5 0 000 1h5.793l-2.147 2.146a.5.5 0 00.708.708l3-3a.5.5 0 000-.708l-3-3a.5.5 0 10-.708.708L10.293 7.5H4.5z"/></svg><svg viewBox="0 0 20 20" id="phone" xmlns="http://www.w3.org/2000/svg"><path d="M16.167 12.38c-.672-.145-1.203.167-1.674.44-.482.28-1.398 1.023-1.923.833-2.689-1.107-5.218-3.46-6.313-6.16-.193-.537.547-1.459.826-1.946.27-.472.576-1.008.436-1.685-.126-.608-1.754-2.68-2.33-3.247-.38-.374-.768-.58-1.168-.613C2.521-.062.844 1.941.55 2.42c-.736 1.022-.732 2.382.013 4.03 1.795 4.429 8.585 11.112 13.03 12.975.82.383 1.57.575 2.245.575.659 0 1.246-.183 1.75-.548.381-.22 2.467-1.98 2.412-3.521-.033-.393-.238-.786-.608-1.167-.562-.58-2.62-2.257-3.224-2.384z"/></svg><svg class="hbi hbi-arrow-left-circle-fill" viewBox="0 0 16 16" id="prev" xmlns="http://www.w3.org/2000/svg"><path d="M8 0a8 8 0 100 16A8 8 0 008 0zm3.5 7.5a.5.5 0 010 1H5.707l2.147 2.146a.5.5 0 01-.708.708l-3-3a.5.5 0 010-.708l3-3a.5.5 0 11.708.708L5.707 7.5H11.5z"/></svg></svg>